G04*
G04 #@! TF.GenerationSoftware,Altium Limited,Altium Designer,19.0.12 (326)*
G04*
G04 Layer_Physical_Order=1*
G04 Layer_Color=255*
%FSLAX24Y24*%
%MOIN*%
G70*
G01*
G75*
%ADD10C,0.0100*%
%ADD36R,0.0374X0.0315*%
%ADD37O,0.0217X0.0689*%
%ADD38O,0.0689X0.0217*%
%ADD39R,0.0591X0.0315*%
%ADD40R,0.0236X0.0433*%
%ADD41C,0.0400*%
%ADD42C,0.1500*%
%ADD43R,0.0591X0.0591*%
%ADD44C,0.0591*%
%ADD45C,0.0768*%
%ADD46R,0.0768X0.0768*%
%ADD47R,0.0500X0.0500*%
%ADD48C,0.0500*%
%ADD49C,0.0600*%
%ADD50R,0.0591X0.0591*%
%ADD51C,0.0799*%
%ADD52C,0.0801*%
%ADD53C,0.1058*%
%ADD54C,0.0290*%
G36*
X13900Y7000D02*
X12100D01*
Y9600D01*
X13900D01*
Y7000D01*
D02*
G37*
D10*
X60000Y8200D02*
Y17400D01*
X59100Y7300D02*
X60000Y8200D01*
X50900Y7300D02*
X59100D01*
X50600Y16400D02*
X51600Y17400D01*
X50600Y7600D02*
Y16400D01*
X33500Y13500D02*
Y13559D01*
X17900Y13900D02*
X20100D01*
X17500Y13500D02*
X17900Y13900D01*
X20100D02*
X20500Y13500D01*
X17778Y7500D02*
X44783D01*
X17528Y7750D02*
X17778Y7500D01*
X15728Y7750D02*
X17528D01*
X17695Y7300D02*
X44180D01*
X17445Y7550D02*
X17695Y7300D01*
X15645Y7550D02*
X17445D01*
X48098Y1069D02*
X48130D01*
X40200Y11623D02*
Y11985D01*
Y11623D02*
X40449D01*
X40537Y11535D01*
Y10948D02*
Y11535D01*
Y10948D02*
X40743Y10743D01*
X40907D01*
X41100Y10550D01*
X40177Y10485D02*
X40655Y10007D01*
Y9830D02*
Y10007D01*
Y9830D02*
X40743Y9743D01*
X41475D01*
X42000Y10267D01*
Y10815D01*
X41457Y11357D02*
X42000Y10815D01*
X41293Y11357D02*
X41457D01*
X41100Y11550D02*
X41293Y11357D01*
X31700Y11623D02*
Y11985D01*
Y11623D02*
X31949D01*
X32037Y11535D01*
Y10948D02*
Y11535D01*
Y10948D02*
X32243Y10743D01*
X32407D01*
X32600Y10550D01*
X31677Y10485D02*
X32155Y10007D01*
Y9830D02*
Y10007D01*
Y9830D02*
X32243Y9743D01*
X32975D01*
X33495Y10262D01*
Y10820D01*
X32957Y11357D02*
X33495Y10820D01*
X32793Y11357D02*
X32957D01*
X32600Y11550D02*
X32793Y11357D01*
X23200Y11623D02*
Y11985D01*
Y11623D02*
X23449D01*
X23537Y11535D01*
Y10948D02*
Y11535D01*
Y10948D02*
X23743Y10743D01*
X23907D01*
X24100Y10550D01*
X23177Y10485D02*
X23655Y10007D01*
Y9830D02*
Y10007D01*
Y9830D02*
X23785Y9700D01*
X24433D01*
X24995Y10262D01*
Y10820D01*
X24457Y11357D02*
X24995Y10820D01*
X24293Y11357D02*
X24457D01*
X24100Y11550D02*
X24293Y11357D01*
X23177Y10573D02*
X23200Y10550D01*
X24700Y10250D02*
Y10527D01*
Y10804D01*
X24500Y10050D02*
X24700Y10250D01*
X22712Y10803D02*
X23136Y11227D01*
X14700Y11623D02*
Y11985D01*
Y11623D02*
X14949D01*
X15037Y11535D01*
Y10948D02*
Y11535D01*
Y10948D02*
X15243Y10743D01*
X15407D01*
X15600Y10550D01*
X14140Y10755D02*
X14700Y11315D01*
X14140Y9055D02*
Y10755D01*
X14677Y10573D02*
X15155Y10095D01*
Y9830D02*
Y10095D01*
Y9830D02*
X15243Y9743D01*
X15975D01*
X16495Y10262D01*
Y10820D01*
X15957Y11357D02*
X16495Y10820D01*
X15793Y11357D02*
X15957D01*
X15600Y11550D02*
X15793Y11357D01*
X14140Y9055D02*
X15645Y7550D01*
X14677Y10573D02*
Y10627D01*
X15600Y11050D02*
X15954D01*
X16200Y10804D01*
X15500Y12446D02*
X17896Y10050D01*
X27623Y11948D02*
Y12073D01*
X27384Y9227D02*
X27700D01*
X18884D02*
X19200D01*
X19123Y11948D02*
Y12073D01*
X36123Y11948D02*
Y12073D01*
X44623Y11948D02*
Y12073D01*
X35884Y9227D02*
X36200D01*
X44384D02*
X44700D01*
X45770Y3000D02*
X46640D01*
X45276D02*
X45770D01*
X44700Y10700D02*
Y11227D01*
Y10073D02*
Y10700D01*
X41700Y10527D02*
Y10804D01*
Y10250D02*
Y10527D01*
X36200Y10700D02*
Y11227D01*
Y10073D02*
Y10700D01*
X33200Y10527D02*
Y10804D01*
Y10250D02*
Y10527D01*
X27700Y10700D02*
Y11227D01*
Y10073D02*
Y10700D01*
X19200D02*
Y11227D01*
Y10073D02*
Y10700D01*
X16200Y10527D02*
Y10804D01*
Y10250D02*
Y10527D01*
X45276Y3315D02*
X46085D01*
X46100Y3300D01*
X46640Y3000D02*
X47270Y3630D01*
X45770Y2530D02*
Y3000D01*
X44180Y7300D02*
X45005Y6475D01*
Y5636D02*
Y6475D01*
X46483Y8700D02*
X48178Y7005D01*
X41204Y8700D02*
X46483D01*
X40559Y8500D02*
X46100D01*
X45883Y8300D02*
X47473Y6710D01*
X32854Y8300D02*
X45883D01*
X45500Y8100D02*
X46800Y6800D01*
X32359Y8100D02*
X45500D01*
X46717Y6400D02*
X51900D01*
X45217Y7900D02*
X46717Y6400D01*
X52600Y2900D02*
Y5283D01*
X51764Y6119D02*
X52600Y5283D01*
X51462Y6710D02*
X51526Y6774D01*
X48178Y7005D02*
X51205D01*
X47473Y6710D02*
X51462D01*
X50900Y4400D02*
Y5800D01*
X46164Y6119D02*
X51764D01*
X50600Y4675D02*
Y5500D01*
X51500Y3117D02*
Y5800D01*
X45619Y5919D02*
X48982D01*
X49724Y5176D01*
X48867Y5719D02*
X49075Y5511D01*
X45818Y5719D02*
X48867D01*
X51800Y3134D02*
Y5500D01*
X51200Y3500D02*
Y5500D01*
X46500Y2383D02*
Y2700D01*
X46783Y2100D02*
X48200D01*
X46500Y2383D02*
X46783Y2100D01*
X48200D02*
X48760Y1540D01*
X39245Y1445D02*
X41728D01*
X38845Y1045D02*
X39245Y1445D01*
X42950Y2667D02*
Y5950D01*
X42900Y6000D02*
X42950Y5950D01*
X45300Y5600D02*
X45619Y5919D01*
X45595Y5195D02*
Y5496D01*
X45500Y5100D02*
X45595Y5195D01*
X45200Y5100D02*
X45500D01*
X48000Y1800D02*
X48200Y1600D01*
X46500Y1800D02*
X48000D01*
X45770Y2530D02*
X46500Y1800D01*
X48200Y1600D02*
X48445Y1355D01*
Y776D02*
Y1355D01*
X48130Y776D02*
Y1069D01*
X48073Y1094D02*
X48098Y1069D01*
X48073Y1094D02*
Y1187D01*
X47761Y1500D02*
X48073Y1187D01*
X47400Y1500D02*
X47761D01*
X49075Y776D02*
Y1608D01*
X41200Y2800D02*
X42300D01*
X43150Y5164D02*
X43300Y5314D01*
X43150Y2584D02*
Y5164D01*
X41566Y1000D02*
X43150Y2584D01*
X43805Y1995D02*
Y4971D01*
X44005Y2680D02*
Y4888D01*
X44205Y2763D02*
Y4805D01*
X44405Y2846D02*
Y4722D01*
X44700Y4200D02*
X44795D01*
X44855Y4260D01*
X44205Y4805D02*
X44400Y5000D01*
X44200Y5083D02*
Y6017D01*
X44005Y4888D02*
X44200Y5083D01*
X44000Y5166D02*
Y6300D01*
X43805Y4971D02*
X44000Y5166D01*
X43300Y5314D02*
Y5700D01*
X44700Y4600D02*
X45250D01*
X44600Y4917D02*
Y5231D01*
X44405Y4722D02*
X44600Y4917D01*
X44400Y5000D02*
Y5800D01*
X45250Y4600D02*
X45276Y4575D01*
X43805Y1995D02*
X44375Y1425D01*
X44005Y2680D02*
X44945Y1740D01*
X44205Y2763D02*
X44913Y2055D01*
X44405Y2846D02*
X44881Y2370D01*
X44400Y5800D02*
X44600Y6000D01*
X23694Y7700D02*
X45000D01*
X23777Y7900D02*
X45217D01*
X40177Y9727D02*
X41204Y8700D01*
X39712Y9347D02*
X40559Y8500D01*
X31677Y9477D02*
X32854Y8300D01*
X31230Y9230D02*
X32359Y8100D01*
X23077Y8600D02*
X23777Y7900D01*
X22712Y8682D02*
X23694Y7700D01*
X45000D02*
X46200Y6500D01*
X44783Y7500D02*
X46164Y6119D01*
X44000Y6300D02*
X44200Y6500D01*
Y6017D02*
X44583Y6400D01*
X44600D01*
Y5231D02*
X45005Y5636D01*
X45595Y5496D02*
X45818Y5719D01*
X41728Y1445D02*
X42950Y2667D01*
X50700Y3000D02*
X51200Y3500D01*
X49724Y3000D02*
X50700D01*
X50445Y3945D02*
X50900Y4400D01*
X50184Y4260D02*
X50600Y4675D01*
X51036Y2370D02*
X51800Y3134D01*
X49724Y2370D02*
X51036D01*
X51068Y2685D02*
X51500Y3117D01*
X49724Y3945D02*
X50445D01*
X51783Y2083D02*
X52600Y2900D01*
X49724Y1740D02*
X50257D01*
X50362Y1845D02*
X52345D01*
X50257Y1740D02*
X50362Y1845D01*
X50445Y1645D02*
X53145D01*
X50200Y1400D02*
X50445Y1645D01*
X48760Y489D02*
X48968Y281D01*
X52281D01*
X52146Y776D02*
X52816Y1445D01*
X49075Y776D02*
X52146D01*
X52816Y1445D02*
X53555D01*
X54000Y1000D01*
X49750Y1400D02*
X50200D01*
X41100Y11050D02*
X41454D01*
X41100Y10050D02*
X41500D01*
X41700Y10250D01*
X41454Y11050D02*
X41700Y10804D01*
X32600Y11050D02*
X32954D01*
X32600Y10050D02*
X33000D01*
X33200Y10250D01*
X32954Y11050D02*
X33200Y10804D01*
X24100Y11050D02*
X24454D01*
X24100Y10050D02*
X24500D01*
X24454Y11050D02*
X24700Y10804D01*
X16000Y10050D02*
X16200Y10250D01*
X43000Y13500D02*
X43400Y13900D01*
X45600D01*
X46000Y13500D01*
X34500D02*
X34900Y13900D01*
X37100D01*
X37500Y13500D01*
X26000D02*
X26400Y13900D01*
X28600D01*
X29000Y13500D01*
X41400Y12500D02*
Y12700D01*
Y12500D02*
X42350Y11550D01*
X31677Y9477D02*
Y9727D01*
X34896Y10050D02*
X35061D01*
X34800Y11550D02*
X35061D01*
X34615Y11365D02*
X34800Y11550D01*
X34615Y10830D02*
Y11365D01*
X34896Y10550D02*
X35061D01*
X34615Y10830D02*
X34896Y10550D01*
X31212Y10803D02*
X31636Y11227D01*
X31212Y9230D02*
Y10803D01*
X35226Y11050D02*
X36123Y11948D01*
X35061Y11050D02*
X35226D01*
X33827Y12073D02*
X36123D01*
X31677Y10573D02*
X31700Y10550D01*
X35061Y10050D02*
X35884Y9227D01*
X26396Y10050D02*
X26561D01*
X24000Y12446D02*
X26396Y10050D01*
X26300Y11550D02*
X26561D01*
X26115Y11365D02*
X26300Y11550D01*
X26115Y10830D02*
Y11365D01*
X26396Y10550D02*
X26561D01*
X26115Y10830D02*
X26396Y10550D01*
X22712Y8682D02*
Y10803D01*
X26726Y11050D02*
X27623Y11948D01*
X26561Y11050D02*
X26726D01*
X25327Y12073D02*
X27623D01*
X26561Y10050D02*
X27384Y9227D01*
X17896Y10050D02*
X18061D01*
X17800Y11550D02*
X18061D01*
X17615Y11365D02*
X17800Y11550D01*
X17615Y10830D02*
Y11365D01*
X17896Y10550D02*
X18061D01*
X17615Y10830D02*
X17896Y10550D01*
X15600Y10050D02*
X16000D01*
X18226Y11050D02*
X19123Y11948D01*
X18061Y11050D02*
X18226D01*
X18061Y10050D02*
X18884Y9227D01*
X42327Y12073D02*
X44623D01*
X39712Y10803D02*
X40136Y11227D01*
X39712Y9347D02*
Y10803D01*
X43561Y10050D02*
X44384Y9227D01*
X23077Y8600D02*
Y9677D01*
X43300Y11550D02*
X43561D01*
X43396Y10050D02*
X43561D01*
X43115Y10830D02*
X43396Y10550D01*
X43115Y10830D02*
Y11365D01*
X43396Y10550D02*
X43561D01*
X43726Y11050D02*
X44623Y11948D01*
X43561Y11050D02*
X43726D01*
X40177Y10573D02*
X40200Y10550D01*
X49724Y2055D02*
Y2083D01*
X38626Y4449D02*
Y4626D01*
X39987Y5937D02*
X40500Y5423D01*
X41000Y13500D02*
X41100Y13400D01*
X43115Y11365D02*
X43300Y11550D01*
X42350D02*
X43300D01*
X24000Y12446D02*
Y13500D01*
X16850Y11550D02*
X17800D01*
X15900Y12500D02*
X16850Y11550D01*
X15900Y12500D02*
Y12700D01*
X25350Y11550D02*
X26300D01*
X24400Y12500D02*
X25350Y11550D01*
X24400Y12500D02*
Y12700D01*
X33850Y11550D02*
X34800D01*
X32900Y12500D02*
X33850Y11550D01*
X32900Y12500D02*
Y12700D01*
X42000Y12400D02*
X42327Y12073D01*
X41100Y12346D02*
X43396Y10050D01*
X41100Y12346D02*
Y13400D01*
X42000Y12400D02*
Y13500D01*
X33500Y12400D02*
X33827Y12073D01*
X32500Y12446D02*
Y13500D01*
Y12446D02*
X34896Y10050D01*
X33500Y12400D02*
Y13500D01*
X34000Y12700D02*
X40600D01*
X25000Y12400D02*
X25327Y12073D01*
X25000Y12400D02*
Y13500D01*
X25500Y12700D02*
X32100D01*
X15500Y12446D02*
Y13500D01*
X16500Y12400D02*
Y13500D01*
X16827Y12073D02*
X19123D01*
X16500Y12400D02*
X16827Y12073D01*
X49724Y4260D02*
X50184D01*
X49724Y4575D02*
Y5176D01*
X49075Y5224D02*
Y5511D01*
X39000Y4449D02*
X39000D01*
X46893Y4007D02*
X47270Y3630D01*
X49438Y3630D01*
X46555Y4345D02*
X46893Y4007D01*
X46870Y4530D02*
X47000Y4400D01*
X42050Y5950D02*
X42500Y5500D01*
X39374Y5536D02*
Y5551D01*
X38626Y4626D02*
X39000Y5000D01*
Y5177D01*
X39174Y5351D01*
X39189D01*
X39025Y5950D02*
X42050D01*
X22500Y6000D02*
X23450Y6950D01*
X24500Y6000D02*
X25250Y6750D01*
X23450Y6950D02*
X36125D01*
X25250Y6750D02*
X35050D01*
X26500Y6000D02*
X27050Y6550D01*
X34650D01*
X35050Y6750D02*
X36400Y5400D01*
X34650Y6550D02*
X36100Y5100D01*
Y2900D02*
Y5100D01*
X40000Y1000D02*
X41566D01*
X36400Y3800D02*
Y5400D01*
X40500Y4100D02*
Y4577D01*
X36400Y3800D02*
X36700Y3500D01*
X40500Y4100D02*
X41100Y3500D01*
X36100Y2900D02*
X36500Y2500D01*
X41800D01*
X41900Y2400D01*
X36125Y6950D02*
X37300Y5775D01*
X38626Y4449D01*
X22500Y8000D02*
Y12700D01*
X17000D02*
X22500D01*
X23600D01*
X36700Y3500D02*
X40500D01*
X41200Y2800D01*
X14677Y8801D02*
Y9727D01*
Y8801D02*
X15728Y7750D01*
X47185Y4632D02*
X47295Y4522D01*
Y4305D02*
Y4522D01*
X47500Y4600D02*
X48000Y4100D01*
X48015Y2685D02*
X48030Y2700D01*
X48000Y4100D02*
X48100Y4200D01*
X48400D01*
X48760Y776D02*
Y1540D01*
X49724Y2685D02*
X51068D01*
X49438Y3630D02*
X49724D01*
X46555Y4345D02*
Y5224D01*
X45276Y3000D02*
X45332Y2943D01*
X44945Y1740D02*
X45276D01*
X52345Y1845D02*
X53000Y2500D01*
X44913Y2055D02*
X45276D01*
X48815Y3315D02*
X49724D01*
X46870Y4530D02*
Y5224D01*
X39000Y3900D02*
Y4449D01*
X53145Y1645D02*
X54000Y2500D01*
X44881Y2370D02*
X45276D01*
X39189Y5351D02*
X39374Y5536D01*
X52281Y281D02*
X53000Y1000D01*
X48760Y489D02*
Y776D01*
X47185Y4632D02*
Y5224D01*
X44855Y4260D02*
X45276D01*
X41100Y3500D02*
X41500D01*
X46100Y8500D02*
X47500Y7100D01*
X44375Y1425D02*
X45276D01*
X47500Y4600D02*
Y5224D01*
X39000Y891D02*
Y1000D01*
X38845Y1045D02*
X39000Y891D01*
X40136Y11227D02*
X40200D01*
X49724Y2083D02*
X51783D01*
X23136Y11227D02*
X23200D01*
X31636D02*
X31700D01*
X38626Y5551D02*
X39025Y5950D01*
X46900Y2400D02*
X48283D01*
X49075Y1608D01*
X48030Y2700D02*
X48400D01*
X48015Y2685D02*
X49724D01*
X47400Y3000D02*
X49724D01*
X47295Y4305D02*
X47400Y4200D01*
Y4100D02*
Y4200D01*
D36*
X40500Y4665D02*
D03*
Y5335D02*
D03*
X14700Y11315D02*
D03*
Y11985D02*
D03*
X23200Y11315D02*
D03*
Y11985D02*
D03*
X31700Y11315D02*
D03*
Y11985D02*
D03*
X40200Y11315D02*
D03*
Y11985D02*
D03*
X19200Y11985D02*
D03*
Y11315D02*
D03*
X27700Y11985D02*
D03*
Y11315D02*
D03*
X36200Y11985D02*
D03*
Y11315D02*
D03*
X44700Y11985D02*
D03*
Y11315D02*
D03*
X14677Y9904D02*
D03*
Y10573D02*
D03*
X23177Y9815D02*
D03*
Y10485D02*
D03*
X31677Y9815D02*
D03*
Y10485D02*
D03*
X40177Y9815D02*
D03*
Y10485D02*
D03*
X19200Y9315D02*
D03*
Y9985D02*
D03*
X27700Y9315D02*
D03*
Y9985D02*
D03*
X36200Y9315D02*
D03*
Y9985D02*
D03*
X44700Y9315D02*
D03*
Y9985D02*
D03*
D37*
X45925Y776D02*
D03*
X46240D02*
D03*
X46555D02*
D03*
X46870D02*
D03*
X47185D02*
D03*
X47500D02*
D03*
X47815D02*
D03*
X48130D02*
D03*
X48445D02*
D03*
X48760D02*
D03*
X49075D02*
D03*
Y5224D02*
D03*
X48760D02*
D03*
X48445D02*
D03*
X48130D02*
D03*
X47815D02*
D03*
X47500D02*
D03*
X47185D02*
D03*
X46870D02*
D03*
X46555D02*
D03*
X46240D02*
D03*
X45925D02*
D03*
D38*
X49724Y1425D02*
D03*
Y1740D02*
D03*
Y2055D02*
D03*
Y2370D02*
D03*
Y2685D02*
D03*
Y3000D02*
D03*
Y3315D02*
D03*
Y3630D02*
D03*
Y3945D02*
D03*
Y4260D02*
D03*
Y4575D02*
D03*
X45276D02*
D03*
Y4260D02*
D03*
Y3945D02*
D03*
Y3630D02*
D03*
Y3315D02*
D03*
Y3000D02*
D03*
Y2685D02*
D03*
Y2370D02*
D03*
Y2055D02*
D03*
Y1740D02*
D03*
Y1425D02*
D03*
D39*
X43561Y10050D02*
D03*
Y10550D02*
D03*
Y11050D02*
D03*
Y11550D02*
D03*
X41100Y10050D02*
D03*
Y10550D02*
D03*
Y11050D02*
D03*
Y11550D02*
D03*
X35061Y10050D02*
D03*
Y10550D02*
D03*
Y11050D02*
D03*
Y11550D02*
D03*
X32600Y10050D02*
D03*
Y10550D02*
D03*
Y11050D02*
D03*
Y11550D02*
D03*
X26561Y10050D02*
D03*
Y10550D02*
D03*
Y11050D02*
D03*
Y11550D02*
D03*
X24100Y10050D02*
D03*
Y10550D02*
D03*
Y11050D02*
D03*
Y11550D02*
D03*
X18061Y10050D02*
D03*
Y10550D02*
D03*
Y11050D02*
D03*
Y11550D02*
D03*
X15600Y10050D02*
D03*
Y10550D02*
D03*
Y11050D02*
D03*
Y11550D02*
D03*
D40*
X39374Y5551D02*
D03*
X38626D02*
D03*
Y4449D02*
D03*
X39000D02*
D03*
X39374D02*
D03*
D41*
X14100Y20300D02*
X33300D01*
X13156Y21244D02*
X14100Y20300D01*
X33300D02*
X35500Y22500D01*
X18500Y24500D02*
X19500D01*
X16500D02*
X17500D01*
X42000D02*
X43000D01*
X39900Y26600D02*
X42000Y24500D01*
X9586Y26600D02*
X39900D01*
X33500Y24500D02*
X34500D01*
X31900Y26100D02*
X33500Y24500D01*
X9793Y26100D02*
X31900D01*
X25000Y24500D02*
X26000D01*
X23900Y25600D02*
X25000Y24500D01*
X10000Y25600D02*
X23900D01*
X7700Y21788D02*
X9622Y19866D01*
X8200Y22666D02*
X9622Y21244D01*
X9578Y22622D02*
X9622D01*
X8700Y23500D02*
X9578Y22622D01*
X7700Y21788D02*
Y24714D01*
X8200Y22666D02*
Y24507D01*
X7700Y24714D02*
X9586Y26600D01*
X8200Y24507D02*
X9793Y26100D01*
X8700Y23500D02*
Y24300D01*
X10000Y25600D01*
X9622Y24000D02*
X10722Y25100D01*
X15900D01*
X16500Y24500D01*
X11814Y24000D02*
X14514Y21300D01*
X11000Y24000D02*
X11814D01*
X12485Y22622D02*
X14307Y20800D01*
X11000Y22622D02*
X12485D01*
X14514Y21300D02*
X17000D01*
X14307Y20800D02*
X25300D01*
X11000Y21244D02*
X13156D01*
X44000Y24500D02*
X45000D01*
X41800Y19800D02*
X44000Y22000D01*
Y24500D01*
X11066Y19800D02*
X41800D01*
X35500Y24500D02*
X36500D01*
X35500Y22500D02*
Y24500D01*
X27000D02*
X28000D01*
X25300Y20800D02*
X27000Y22500D01*
Y24500D01*
X17000Y21300D02*
X18500Y22800D01*
Y24500D01*
X11000Y19866D02*
X11066Y19800D01*
D42*
X12760Y8160D02*
X14921Y6000D01*
X18500D01*
X20500D01*
D43*
X62000Y17400D02*
D03*
X53600D02*
D03*
X54000Y2500D02*
D03*
Y1000D02*
D03*
D44*
X61000Y17400D02*
D03*
X60000D02*
D03*
X52600D02*
D03*
X51600D02*
D03*
X40000Y1000D02*
D03*
Y2000D02*
D03*
X38800Y1000D02*
D03*
Y2000D02*
D03*
X53000Y2500D02*
D03*
Y1000D02*
D03*
D45*
X61709Y22500D02*
D03*
X57409D02*
D03*
X53109D02*
D03*
X48809D02*
D03*
D46*
X63678D02*
D03*
X59378D02*
D03*
X55078D02*
D03*
X50778D02*
D03*
D47*
X14500Y13500D02*
D03*
Y24500D02*
D03*
X23000Y13500D02*
D03*
Y24500D02*
D03*
X31500D02*
D03*
Y13500D02*
D03*
X40000D02*
D03*
Y24500D02*
D03*
D48*
X15500Y13500D02*
D03*
X16500D02*
D03*
X17500D02*
D03*
X18500D02*
D03*
X19500D02*
D03*
X20500D02*
D03*
X21500D02*
D03*
X15500Y24500D02*
D03*
X16500D02*
D03*
X17500D02*
D03*
X18500D02*
D03*
X19500D02*
D03*
X20500D02*
D03*
X21500D02*
D03*
X24000Y13500D02*
D03*
X25000D02*
D03*
X26000D02*
D03*
X27000D02*
D03*
X28000D02*
D03*
X29000D02*
D03*
X30000D02*
D03*
X24000Y24500D02*
D03*
X25000D02*
D03*
X26000D02*
D03*
X27000D02*
D03*
X28000D02*
D03*
X29000D02*
D03*
X30000D02*
D03*
X38500D02*
D03*
X37500D02*
D03*
X36500D02*
D03*
X35500D02*
D03*
X34500D02*
D03*
X33500D02*
D03*
X32500D02*
D03*
X38500Y13500D02*
D03*
X37500D02*
D03*
X36500D02*
D03*
X35500D02*
D03*
X34500D02*
D03*
X33500D02*
D03*
X32500D02*
D03*
X41000D02*
D03*
X42000D02*
D03*
X43000D02*
D03*
X44000D02*
D03*
X45000D02*
D03*
X46000D02*
D03*
X47000D02*
D03*
X41000Y24500D02*
D03*
X42000D02*
D03*
X43000D02*
D03*
X44000D02*
D03*
X45000D02*
D03*
X46000D02*
D03*
X47000D02*
D03*
D49*
X41500Y3500D02*
D03*
Y4500D02*
D03*
Y5500D02*
D03*
X42500Y3500D02*
D03*
Y4500D02*
D03*
Y5500D02*
D03*
D50*
X40000Y3000D02*
D03*
X38800D02*
D03*
D51*
X28500Y6000D02*
D03*
X18500D02*
D03*
X20500D02*
D03*
X22500D02*
D03*
X24500D02*
D03*
X26500D02*
D03*
D52*
X9622Y11598D02*
D03*
X11000D02*
D03*
Y24000D02*
D03*
X9622D02*
D03*
X11000Y22622D02*
D03*
X9622D02*
D03*
X11000Y21244D02*
D03*
X9622D02*
D03*
X11000Y19866D02*
D03*
X9622D02*
D03*
X11000Y18488D02*
D03*
X9622D02*
D03*
X11000Y17110D02*
D03*
X9622D02*
D03*
X11000Y15732D02*
D03*
X9622D02*
D03*
X11000Y14354D02*
D03*
X9622D02*
D03*
X11000Y12976D02*
D03*
X9622D02*
D03*
D53*
X16000Y23000D02*
D03*
Y17000D02*
D03*
X24500Y23000D02*
D03*
Y17000D02*
D03*
X33000Y23000D02*
D03*
Y17000D02*
D03*
X41500Y23000D02*
D03*
Y17000D02*
D03*
D54*
X24700Y10527D02*
D03*
X46100Y3300D02*
D03*
X51900Y6400D02*
D03*
X51526Y6774D02*
D03*
X51205Y7005D02*
D03*
X50900Y7300D02*
D03*
X50600Y7600D02*
D03*
X50900Y5800D02*
D03*
X50600Y5500D02*
D03*
X46800Y6800D02*
D03*
X47500Y7100D02*
D03*
X51500Y5800D02*
D03*
X51800Y5500D02*
D03*
X51200D02*
D03*
X48200Y1600D02*
D03*
X46900Y2400D02*
D03*
X42300Y2800D02*
D03*
X46500Y2700D02*
D03*
X44700Y4200D02*
D03*
Y4600D02*
D03*
X44200Y6500D02*
D03*
X44600Y6400D02*
D03*
Y6000D02*
D03*
X43300Y5700D02*
D03*
X42900Y6000D02*
D03*
X45200Y5100D02*
D03*
X45300Y5600D02*
D03*
X46200Y6500D02*
D03*
X47400Y1500D02*
D03*
X41700Y10527D02*
D03*
X33200D02*
D03*
X16200D02*
D03*
X41400Y12700D02*
D03*
X44700Y10700D02*
D03*
X36200D02*
D03*
X27700D02*
D03*
X19200D02*
D03*
X40600Y12700D02*
D03*
X42500D02*
D03*
X15900D02*
D03*
X25500D02*
D03*
X23600D02*
D03*
X24400D02*
D03*
X34000D02*
D03*
X32100D02*
D03*
X32900D02*
D03*
X17000D02*
D03*
X39000Y3900D02*
D03*
X46893Y4007D02*
D03*
X47000Y4400D02*
D03*
X48815Y3315D02*
D03*
X39000Y5900D02*
D03*
X41900Y2400D02*
D03*
X37300Y5775D02*
D03*
X22500Y8000D02*
D03*
X12400Y7200D02*
D03*
X12600Y7600D02*
D03*
X12400Y8000D02*
D03*
X12600Y8400D02*
D03*
X12400Y8800D02*
D03*
X12600Y9200D02*
D03*
X12800Y7200D02*
D03*
X13000Y7600D02*
D03*
X12800Y8000D02*
D03*
X13000Y8400D02*
D03*
X12800Y8800D02*
D03*
X13000Y9200D02*
D03*
X13200Y7200D02*
D03*
X13400Y7600D02*
D03*
X13200Y8000D02*
D03*
X13400Y8400D02*
D03*
X13200Y8800D02*
D03*
X13400Y9200D02*
D03*
X13600Y7200D02*
D03*
X13800Y7600D02*
D03*
X13600Y8000D02*
D03*
X13800Y8400D02*
D03*
X13600Y8800D02*
D03*
X13800Y9200D02*
D03*
X48400Y4200D02*
D03*
Y2700D02*
D03*
X47400Y3000D02*
D03*
Y4100D02*
D03*
M02*
