G04*
G04 #@! TF.GenerationSoftware,Altium Limited,Altium Designer,19.0.12 (326)*
G04*
G04 Layer_Color=8388736*
%FSLAX24Y24*%
%MOIN*%
G70*
G01*
G75*
%ADD19R,0.0454X0.0395*%
%ADD20O,0.0297X0.0769*%
%ADD21O,0.0769X0.0297*%
%ADD22R,0.0671X0.0395*%
%ADD23R,0.0316X0.0513*%
%ADD24R,0.0671X0.0671*%
%ADD25C,0.0671*%
%ADD26C,0.0848*%
%ADD27R,0.0848X0.0848*%
%ADD28R,0.0580X0.0580*%
%ADD29C,0.0580*%
%ADD30C,0.0680*%
%ADD31R,0.0671X0.0671*%
%ADD32C,0.0879*%
%ADD33C,0.0080*%
%ADD34C,0.0881*%
%ADD35C,0.1138*%
D19*
X40500Y4665D02*
D03*
Y5335D02*
D03*
X14700Y11315D02*
D03*
Y11985D02*
D03*
X23200Y11315D02*
D03*
Y11985D02*
D03*
X31700Y11315D02*
D03*
Y11985D02*
D03*
X40200Y11315D02*
D03*
Y11985D02*
D03*
X19200Y11985D02*
D03*
Y11315D02*
D03*
X27700Y11985D02*
D03*
Y11315D02*
D03*
X36200Y11985D02*
D03*
Y11315D02*
D03*
X44700Y11985D02*
D03*
Y11315D02*
D03*
X14677Y9904D02*
D03*
Y10573D02*
D03*
X23177Y9815D02*
D03*
Y10485D02*
D03*
X31677Y9815D02*
D03*
Y10485D02*
D03*
X40177Y9815D02*
D03*
Y10485D02*
D03*
X19200Y9315D02*
D03*
Y9985D02*
D03*
X27700Y9315D02*
D03*
Y9985D02*
D03*
X36200Y9315D02*
D03*
Y9985D02*
D03*
X44700Y9315D02*
D03*
Y9985D02*
D03*
D20*
X45925Y776D02*
D03*
X46240D02*
D03*
X46555D02*
D03*
X46870D02*
D03*
X47185D02*
D03*
X47500D02*
D03*
X47815D02*
D03*
X48130D02*
D03*
X48445D02*
D03*
X48760D02*
D03*
X49075D02*
D03*
Y5224D02*
D03*
X48760D02*
D03*
X48445D02*
D03*
X48130D02*
D03*
X47815D02*
D03*
X47500D02*
D03*
X47185D02*
D03*
X46870D02*
D03*
X46555D02*
D03*
X46240D02*
D03*
X45925D02*
D03*
D21*
X49724Y1425D02*
D03*
Y1740D02*
D03*
Y2055D02*
D03*
Y2370D02*
D03*
Y2685D02*
D03*
Y3000D02*
D03*
Y3315D02*
D03*
Y3630D02*
D03*
Y3945D02*
D03*
Y4260D02*
D03*
Y4575D02*
D03*
X45276D02*
D03*
Y4260D02*
D03*
Y3945D02*
D03*
Y3630D02*
D03*
Y3315D02*
D03*
Y3000D02*
D03*
Y2685D02*
D03*
Y2370D02*
D03*
Y2055D02*
D03*
Y1740D02*
D03*
Y1425D02*
D03*
D22*
X43561Y10050D02*
D03*
Y10550D02*
D03*
Y11050D02*
D03*
Y11550D02*
D03*
X41100Y10050D02*
D03*
Y10550D02*
D03*
Y11050D02*
D03*
Y11550D02*
D03*
X35061Y10050D02*
D03*
Y10550D02*
D03*
Y11050D02*
D03*
Y11550D02*
D03*
X32600Y10050D02*
D03*
Y10550D02*
D03*
Y11050D02*
D03*
Y11550D02*
D03*
X26561Y10050D02*
D03*
Y10550D02*
D03*
Y11050D02*
D03*
Y11550D02*
D03*
X24100Y10050D02*
D03*
Y10550D02*
D03*
Y11050D02*
D03*
Y11550D02*
D03*
X18061Y10050D02*
D03*
Y10550D02*
D03*
Y11050D02*
D03*
Y11550D02*
D03*
X15600Y10050D02*
D03*
Y10550D02*
D03*
Y11050D02*
D03*
Y11550D02*
D03*
D23*
X39374Y5551D02*
D03*
X38626D02*
D03*
Y4449D02*
D03*
X39000D02*
D03*
X39374D02*
D03*
D24*
X62000Y17400D02*
D03*
X53600D02*
D03*
X54000Y2500D02*
D03*
Y1000D02*
D03*
D25*
X61000Y17400D02*
D03*
X60000D02*
D03*
X52600D02*
D03*
X51600D02*
D03*
X40000Y1000D02*
D03*
Y2000D02*
D03*
X38800Y1000D02*
D03*
Y2000D02*
D03*
X53000Y2500D02*
D03*
Y1000D02*
D03*
D26*
X61709Y22500D02*
D03*
X57409D02*
D03*
X53109D02*
D03*
X48809D02*
D03*
D27*
X63678D02*
D03*
X59378D02*
D03*
X55078D02*
D03*
X50778D02*
D03*
D28*
X14500Y13500D02*
D03*
Y24500D02*
D03*
X23000Y13500D02*
D03*
Y24500D02*
D03*
X31500D02*
D03*
Y13500D02*
D03*
X40000D02*
D03*
Y24500D02*
D03*
D29*
X15500Y13500D02*
D03*
X16500D02*
D03*
X17500D02*
D03*
X18500D02*
D03*
X19500D02*
D03*
X20500D02*
D03*
X21500D02*
D03*
X15500Y24500D02*
D03*
X16500D02*
D03*
X17500D02*
D03*
X18500D02*
D03*
X19500D02*
D03*
X20500D02*
D03*
X21500D02*
D03*
X24000Y13500D02*
D03*
X25000D02*
D03*
X26000D02*
D03*
X27000D02*
D03*
X28000D02*
D03*
X29000D02*
D03*
X30000D02*
D03*
X24000Y24500D02*
D03*
X25000D02*
D03*
X26000D02*
D03*
X27000D02*
D03*
X28000D02*
D03*
X29000D02*
D03*
X30000D02*
D03*
X38500D02*
D03*
X37500D02*
D03*
X36500D02*
D03*
X35500D02*
D03*
X34500D02*
D03*
X33500D02*
D03*
X32500D02*
D03*
X38500Y13500D02*
D03*
X37500D02*
D03*
X36500D02*
D03*
X35500D02*
D03*
X34500D02*
D03*
X33500D02*
D03*
X32500D02*
D03*
X41000D02*
D03*
X42000D02*
D03*
X43000D02*
D03*
X44000D02*
D03*
X45000D02*
D03*
X46000D02*
D03*
X47000D02*
D03*
X41000Y24500D02*
D03*
X42000D02*
D03*
X43000D02*
D03*
X44000D02*
D03*
X45000D02*
D03*
X46000D02*
D03*
X47000D02*
D03*
D30*
X41500Y3500D02*
D03*
Y4500D02*
D03*
Y5500D02*
D03*
X42500Y3500D02*
D03*
Y4500D02*
D03*
Y5500D02*
D03*
D31*
X40000Y3000D02*
D03*
X38800D02*
D03*
D32*
X28500Y6000D02*
D03*
X18500D02*
D03*
X20500D02*
D03*
X22500D02*
D03*
X24500D02*
D03*
X26500D02*
D03*
D33*
X31500Y2500D02*
D03*
X15500D02*
D03*
D34*
X9622Y11598D02*
D03*
X11000D02*
D03*
Y24000D02*
D03*
X9622D02*
D03*
X11000Y22622D02*
D03*
X9622D02*
D03*
X11000Y21244D02*
D03*
X9622D02*
D03*
X11000Y19866D02*
D03*
X9622D02*
D03*
X11000Y18488D02*
D03*
X9622D02*
D03*
X11000Y17110D02*
D03*
X9622D02*
D03*
X11000Y15732D02*
D03*
X9622D02*
D03*
X11000Y14354D02*
D03*
X9622D02*
D03*
X11000Y12976D02*
D03*
X9622D02*
D03*
D35*
X16000Y23000D02*
D03*
Y17000D02*
D03*
X24500Y23000D02*
D03*
Y17000D02*
D03*
X33000Y23000D02*
D03*
Y17000D02*
D03*
X41500Y23000D02*
D03*
Y17000D02*
D03*
M02*
