G04*
G04 #@! TF.GenerationSoftware,Altium Limited,Altium Designer,19.0.12 (326)*
G04*
G04 Layer_Color=32896*
%FSLAX24Y24*%
%MOIN*%
G70*
G01*
G75*
%ADD10C,0.0100*%
%ADD13C,0.0079*%
%ADD16C,0.0070*%
%ADD65C,0.0110*%
%ADD66C,0.0050*%
D10*
X16000Y18000D02*
Y22000D01*
X24500Y18000D02*
Y22000D01*
X33000Y18000D02*
Y22000D01*
X41500Y18000D02*
Y22000D01*
X62323Y18300D02*
X61923D01*
X53879Y18300D02*
X53479D01*
X60179Y18300D02*
X59779D01*
X59979Y18500D02*
Y18100D01*
X51779Y18400D02*
X51379D01*
X51579Y18600D02*
Y18200D01*
X63000Y24800D02*
X63100Y24900D01*
X63300D01*
X63400Y24800D01*
Y24400D01*
X63300Y24300D01*
X63100D01*
X63000Y24400D01*
Y24600D01*
X63200D01*
X62800Y24300D02*
Y24900D01*
X62400Y24300D01*
Y24900D01*
X62200D02*
Y24300D01*
X61900D01*
X61801Y24400D01*
Y24800D01*
X61900Y24900D01*
X62200D01*
X54400Y24800D02*
X54500Y24900D01*
X54700D01*
X54800Y24800D01*
Y24400D01*
X54700Y24300D01*
X54500D01*
X54400Y24400D01*
Y24600D01*
X54600D01*
X54200Y24300D02*
Y24900D01*
X53800Y24300D01*
Y24900D01*
X53600D02*
Y24300D01*
X53300D01*
X53201Y24400D01*
Y24800D01*
X53300Y24900D01*
X53600D01*
X59065Y17835D02*
X58465D01*
Y17535D01*
X58565Y17435D01*
X58765D01*
X58865Y17535D01*
Y17835D01*
X59065Y17235D02*
Y17035D01*
Y17135D01*
X58465D01*
X58565Y17235D01*
X59165Y16735D02*
Y16335D01*
X59065Y16136D02*
X58465D01*
X58665Y15936D01*
X58465Y15736D01*
X59065D01*
Y15536D02*
Y15336D01*
Y15436D01*
X58465D01*
X58565Y15536D01*
X50665Y17835D02*
X50065D01*
Y17535D01*
X50165Y17435D01*
X50365D01*
X50465Y17535D01*
Y17835D01*
X50665Y17235D02*
Y17035D01*
Y17135D01*
X50065D01*
X50165Y17235D01*
X50765Y16735D02*
Y16335D01*
X50665Y16136D02*
X50065D01*
X50265Y15936D01*
X50065Y15736D01*
X50665D01*
Y15136D02*
Y15536D01*
X50265Y15136D01*
X50165D01*
X50065Y15236D01*
Y15436D01*
X50165Y15536D01*
X64279Y26225D02*
X64479D01*
X64379D01*
Y25725D01*
X64479Y25625D01*
X64579D01*
X64679Y25725D01*
X63679Y25625D02*
X64079D01*
X63679Y26025D01*
Y26125D01*
X63779Y26225D01*
X63979D01*
X64079Y26125D01*
X63479Y25525D02*
X63079D01*
X62879Y25625D02*
Y26225D01*
X62679Y26025D01*
X62479Y26225D01*
Y25625D01*
X62279D02*
X62079D01*
X62179D01*
Y26225D01*
X62279Y26125D01*
X59979Y26225D02*
X60179D01*
X60079D01*
Y25725D01*
X60179Y25625D01*
X60279D01*
X60379Y25725D01*
X59779Y25625D02*
X59579D01*
X59679D01*
Y26225D01*
X59779Y26125D01*
X59279Y25525D02*
X58879D01*
X58679Y25625D02*
Y26225D01*
X58479Y26025D01*
X58279Y26225D01*
Y25625D01*
X58079D02*
X57879D01*
X57979D01*
Y26225D01*
X58079Y26125D01*
X55679Y26225D02*
X55879D01*
X55779D01*
Y25725D01*
X55879Y25625D01*
X55979D01*
X56079Y25725D01*
X55079Y25625D02*
X55479D01*
X55079Y26025D01*
Y26125D01*
X55179Y26225D01*
X55379D01*
X55479Y26125D01*
X54879Y25525D02*
X54479D01*
X54279Y25625D02*
Y26225D01*
X54079Y26025D01*
X53879Y26225D01*
Y25625D01*
X53280D02*
X53679D01*
X53280Y26025D01*
Y26125D01*
X53379Y26225D01*
X53579D01*
X53679Y26125D01*
X51379Y26225D02*
X51579D01*
X51479D01*
Y25725D01*
X51579Y25625D01*
X51679D01*
X51779Y25725D01*
X51179Y25625D02*
X50979D01*
X51079D01*
Y26225D01*
X51179Y26125D01*
X50679Y25525D02*
X50279D01*
X50079Y25625D02*
Y26225D01*
X49879Y26025D01*
X49679Y26225D01*
Y25625D01*
X49079D02*
X49479D01*
X49079Y26025D01*
Y26125D01*
X49179Y26225D01*
X49379D01*
X49479Y26125D01*
X20200Y20000D02*
X20300Y20100D01*
X20500D01*
X20600Y20000D01*
Y19600D01*
X20500Y19500D01*
X20300D01*
X20200Y19600D01*
Y19800D01*
X20400D01*
X20000Y19500D02*
Y20100D01*
X19600Y19500D01*
Y20100D01*
X19400D02*
Y19500D01*
X19100D01*
X19001Y19600D01*
Y20000D01*
X19100Y20100D01*
X19400D01*
X28800Y20000D02*
X28900Y20100D01*
X29100D01*
X29200Y20000D01*
Y19600D01*
X29100Y19500D01*
X28900D01*
X28800Y19600D01*
Y19800D01*
X29000D01*
X28600Y19500D02*
Y20100D01*
X28200Y19500D01*
Y20100D01*
X28000D02*
Y19500D01*
X27700D01*
X27601Y19600D01*
Y20000D01*
X27700Y20100D01*
X28000D01*
X37500Y20000D02*
X37600Y20100D01*
X37800D01*
X37900Y20000D01*
Y19600D01*
X37800Y19500D01*
X37600D01*
X37500Y19600D01*
Y19800D01*
X37700D01*
X37300Y19500D02*
Y20100D01*
X36900Y19500D01*
Y20100D01*
X36700D02*
Y19500D01*
X36400D01*
X36301Y19600D01*
Y20000D01*
X36400Y20100D01*
X36700D01*
X18293Y4971D02*
X18264D01*
X18207Y4943D01*
X18179Y4914D01*
X18150Y4857D01*
Y4743D01*
X18179Y4686D01*
X18207Y4657D01*
X18264Y4629D01*
X18322D01*
X18379Y4657D01*
X18464Y4714D01*
X18750Y5000D01*
Y4600D01*
X18150Y4180D02*
X18550Y4466D01*
Y4037D01*
X18150Y4180D02*
X18750D01*
X18150Y3932D02*
X18750Y3703D01*
X18150Y3475D02*
X18750Y3703D01*
X18150Y2926D02*
X18750D01*
X18150Y2800D02*
X18750D01*
X18150D02*
X18750Y2401D01*
X18150D02*
X18750D01*
X20264Y5000D02*
X20236Y4943D01*
X20150Y4857D01*
X20750D01*
X20293Y4532D02*
X20264D01*
X20207Y4503D01*
X20179Y4474D01*
X20150Y4417D01*
Y4303D01*
X20179Y4246D01*
X20207Y4217D01*
X20264Y4189D01*
X20322D01*
X20379Y4217D01*
X20464Y4274D01*
X20750Y4560D01*
Y4160D01*
X20150Y4026D02*
X20750Y3797D01*
X20150Y3569D02*
X20750Y3797D01*
X20150Y3020D02*
X20750D01*
X20150Y2895D02*
X20750D01*
X20150D02*
X20750Y2495D01*
X20150D02*
X20750D01*
X22150Y4657D02*
Y4943D01*
X22407Y4971D01*
X22379Y4943D01*
X22350Y4857D01*
Y4771D01*
X22379Y4686D01*
X22436Y4629D01*
X22521Y4600D01*
X22579D01*
X22664Y4629D01*
X22721Y4686D01*
X22750Y4771D01*
Y4857D01*
X22721Y4943D01*
X22693Y4971D01*
X22636Y5000D01*
X22150Y4466D02*
X22750Y4237D01*
X22150Y4009D02*
X22750Y4237D01*
X22150Y3460D02*
X22750D01*
X22150Y3335D02*
X22750D01*
X22150D02*
X22750Y2935D01*
X22150D02*
X22750D01*
X24236Y4600D02*
X24179Y4657D01*
X24150Y4743D01*
Y4857D01*
X24179Y4943D01*
X24236Y5000D01*
X24293D01*
X24350Y4971D01*
X24379Y4943D01*
X24407Y4886D01*
X24464Y4714D01*
X24493Y4657D01*
X24521Y4629D01*
X24579Y4600D01*
X24664D01*
X24721Y4657D01*
X24750Y4743D01*
Y4857D01*
X24721Y4943D01*
X24664Y5000D01*
X24150Y4466D02*
X24750D01*
X24150D02*
Y4266D01*
X24179Y4180D01*
X24236Y4123D01*
X24293Y4094D01*
X24379Y4066D01*
X24521D01*
X24607Y4094D01*
X24664Y4123D01*
X24721Y4180D01*
X24750Y4266D01*
Y4466D01*
Y3475D02*
X24150Y3703D01*
X24750Y3932D01*
X24550Y3846D02*
Y3560D01*
X26236Y4600D02*
X26179Y4657D01*
X26150Y4743D01*
Y4857D01*
X26179Y4943D01*
X26236Y5000D01*
X26293D01*
X26350Y4971D01*
X26379Y4943D01*
X26407Y4886D01*
X26464Y4714D01*
X26493Y4657D01*
X26521Y4629D01*
X26579Y4600D01*
X26664D01*
X26721Y4657D01*
X26750Y4743D01*
Y4857D01*
X26721Y4943D01*
X26664Y5000D01*
X26293Y4037D02*
X26236Y4066D01*
X26179Y4123D01*
X26150Y4180D01*
Y4294D01*
X26179Y4352D01*
X26236Y4409D01*
X26293Y4437D01*
X26379Y4466D01*
X26521D01*
X26607Y4437D01*
X26664Y4409D01*
X26721Y4352D01*
X26750Y4294D01*
Y4180D01*
X26721Y4123D01*
X26664Y4066D01*
X26607Y4037D01*
X26150Y3869D02*
X26750D01*
Y3526D01*
X28293Y4572D02*
X28236Y4600D01*
X28179Y4657D01*
X28150Y4714D01*
Y4829D01*
X28179Y4886D01*
X28236Y4943D01*
X28293Y4971D01*
X28379Y5000D01*
X28521D01*
X28607Y4971D01*
X28664Y4943D01*
X28721Y4886D01*
X28750Y4829D01*
Y4714D01*
X28721Y4657D01*
X28664Y4600D01*
X28607Y4572D01*
X28521D01*
Y4714D02*
Y4572D01*
X28150Y4434D02*
X28750D01*
X28150D02*
X28750Y4034D01*
X28150D02*
X28750D01*
X28150Y3869D02*
X28750D01*
X28150D02*
Y3669D01*
X28179Y3583D01*
X28236Y3526D01*
X28293Y3497D01*
X28379Y3469D01*
X28521D01*
X28607Y3497D01*
X28664Y3526D01*
X28721Y3583D01*
X28750Y3669D01*
Y3869D01*
D13*
X59500Y16900D02*
X62500D01*
X59500D02*
Y17900D01*
X62500D01*
Y16900D02*
Y17900D01*
X51100Y16900D02*
X54100D01*
X51100D02*
Y17900D01*
X54100D01*
Y16900D02*
Y17900D01*
X48101Y2298D02*
X48179D01*
X48101Y2022D02*
X48179D01*
X38862Y4961D02*
Y5039D01*
X39138Y4961D02*
Y5039D01*
X37862Y4961D02*
Y5039D01*
X38138Y4961D02*
Y5039D01*
D16*
X54725Y13355D02*
X54925D01*
Y13205D01*
X54825D01*
X54925D01*
Y13055D01*
X54625D02*
X54525D01*
X54575D01*
Y13355D01*
X54625Y13305D01*
X54375Y13005D02*
X54175D01*
X54075Y13055D02*
Y13355D01*
X53975Y13255D01*
X53875Y13355D01*
Y13055D01*
X53575D02*
X53775D01*
X53575Y13255D01*
Y13305D01*
X53625Y13355D01*
X53725D01*
X53775Y13305D01*
X62295Y13255D02*
X62495D01*
Y13105D01*
X62395D01*
X62495D01*
Y12955D01*
X62195D02*
X62095D01*
X62145D01*
Y13255D01*
X62195Y13205D01*
X61945Y12905D02*
X61745D01*
X61645Y12955D02*
Y13255D01*
X61545Y13155D01*
X61445Y13255D01*
Y12955D01*
X61345D02*
X61245D01*
X61295D01*
Y13255D01*
X61345Y13205D01*
X24102Y8300D02*
X23902D01*
Y8450D01*
X24002D01*
X23902D01*
Y8600D01*
X24202D02*
X24302D01*
X24252D01*
Y8300D01*
X24202Y8350D01*
X24652Y8300D02*
X24452D01*
Y8450D01*
X24552D01*
X24452D01*
Y8600D01*
X24752Y8650D02*
X24952D01*
X25052Y8600D02*
Y8300D01*
X25152Y8400D01*
X25251Y8300D01*
Y8600D01*
X25551D02*
X25351D01*
X25551Y8400D01*
Y8350D01*
X25501Y8300D01*
X25401D01*
X25351Y8350D01*
X40840Y21050D02*
Y21150D01*
Y21100D01*
X41090D01*
X41140Y21150D01*
Y21200D01*
X41090Y21250D01*
X41240Y20950D02*
X40940D01*
Y20800D01*
X40990Y20750D01*
X41090D01*
X41140Y20800D01*
Y20950D01*
Y20650D02*
Y20550D01*
Y20600D01*
X40840D01*
X40890Y20650D01*
X40840Y20200D02*
Y20400D01*
X40990D01*
Y20300D01*
Y20400D01*
X41140D01*
X41190Y20100D02*
Y19900D01*
X41140Y19800D02*
X40840D01*
X40940Y19700D01*
X40840Y19601D01*
X41140D01*
Y19351D02*
X40840D01*
X40990Y19501D01*
Y19301D01*
X32340Y21050D02*
Y21150D01*
Y21100D01*
X32590D01*
X32640Y21150D01*
Y21200D01*
X32590Y21250D01*
X32740Y20950D02*
X32440D01*
Y20800D01*
X32490Y20750D01*
X32590D01*
X32640Y20800D01*
Y20950D01*
Y20650D02*
Y20550D01*
Y20600D01*
X32340D01*
X32390Y20650D01*
X32340Y20200D02*
Y20400D01*
X32490D01*
Y20300D01*
Y20400D01*
X32640D01*
X32690Y20100D02*
Y19900D01*
X32640Y19800D02*
X32340D01*
X32440Y19700D01*
X32340Y19601D01*
X32640D01*
X32390Y19501D02*
X32340Y19451D01*
Y19351D01*
X32390Y19301D01*
X32440D01*
X32490Y19351D01*
Y19401D01*
Y19351D01*
X32540Y19301D01*
X32590D01*
X32640Y19351D01*
Y19451D01*
X32590Y19501D01*
X23840Y21050D02*
Y21150D01*
Y21100D01*
X24090D01*
X24140Y21150D01*
Y21200D01*
X24090Y21250D01*
X24240Y20950D02*
X23940D01*
Y20800D01*
X23990Y20750D01*
X24090D01*
X24140Y20800D01*
Y20950D01*
Y20650D02*
Y20550D01*
Y20600D01*
X23840D01*
X23890Y20650D01*
X23840Y20200D02*
Y20400D01*
X23990D01*
Y20300D01*
Y20400D01*
X24140D01*
X24190Y20100D02*
Y19900D01*
X24140Y19800D02*
X23840D01*
X23940Y19700D01*
X23840Y19601D01*
X24140D01*
Y19301D02*
Y19501D01*
X23940Y19301D01*
X23890D01*
X23840Y19351D01*
Y19451D01*
X23890Y19501D01*
X15340Y21050D02*
Y21150D01*
Y21100D01*
X15590D01*
X15640Y21150D01*
Y21200D01*
X15590Y21250D01*
X15740Y20950D02*
X15440D01*
Y20800D01*
X15490Y20750D01*
X15590D01*
X15640Y20800D01*
Y20950D01*
Y20650D02*
Y20550D01*
Y20600D01*
X15340D01*
X15390Y20650D01*
X15340Y20200D02*
Y20400D01*
X15490D01*
Y20300D01*
Y20400D01*
X15640D01*
X15690Y20100D02*
Y19900D01*
X15640Y19800D02*
X15340D01*
X15440Y19700D01*
X15340Y19601D01*
X15640D01*
Y19501D02*
Y19401D01*
Y19451D01*
X15340D01*
X15390Y19501D01*
X39060Y6090D02*
X39110Y6140D01*
X39210D01*
X39260Y6090D01*
Y5890D01*
X39210Y5840D01*
X39110D01*
X39060Y5890D01*
X38960Y5840D02*
X38860D01*
X38910D01*
Y6140D01*
X38960Y6090D01*
X38510Y6140D02*
X38710D01*
Y5990D01*
X38610D01*
X38710D01*
Y5840D01*
X38060Y6090D02*
X38110Y6140D01*
X38210D01*
X38260Y6090D01*
Y5890D01*
X38210Y5840D01*
X38110D01*
X38060Y5890D01*
X37760Y5840D02*
X37960D01*
X37760Y6040D01*
Y6090D01*
X37810Y6140D01*
X37910D01*
X37960Y6090D01*
X37460Y6140D02*
X37660D01*
Y5990D01*
X37560D01*
X37660D01*
Y5840D01*
X48380Y2920D02*
X48430Y2970D01*
X48530D01*
X48580Y2920D01*
Y2720D01*
X48530Y2670D01*
X48430D01*
X48380Y2720D01*
X48280Y2920D02*
X48230Y2970D01*
X48130D01*
X48080Y2920D01*
Y2870D01*
X48130Y2820D01*
X48180D01*
X48130D01*
X48080Y2770D01*
Y2720D01*
X48130Y2670D01*
X48230D01*
X48280Y2720D01*
X47780Y2970D02*
X47980D01*
Y2820D01*
X47880D01*
X47980D01*
Y2670D01*
X41102Y8300D02*
X40902D01*
Y8450D01*
X41002D01*
X40902D01*
Y8600D01*
X41202D02*
X41302D01*
X41252D01*
Y8300D01*
X41202Y8350D01*
X41652Y8300D02*
X41452D01*
Y8450D01*
X41552D01*
X41452D01*
Y8600D01*
X41752Y8650D02*
X41952D01*
X42052Y8600D02*
Y8300D01*
X42152Y8400D01*
X42251Y8300D01*
Y8600D01*
X42501D02*
Y8300D01*
X42351Y8450D01*
X42551D01*
X32602Y8300D02*
X32402D01*
Y8450D01*
X32502D01*
X32402D01*
Y8600D01*
X32702D02*
X32802D01*
X32752D01*
Y8300D01*
X32702Y8350D01*
X33152Y8300D02*
X32952D01*
Y8450D01*
X33052D01*
X32952D01*
Y8600D01*
X33252Y8650D02*
X33452D01*
X33552Y8600D02*
Y8300D01*
X33652Y8400D01*
X33751Y8300D01*
Y8600D01*
X33851Y8350D02*
X33901Y8300D01*
X34001D01*
X34051Y8350D01*
Y8400D01*
X34001Y8450D01*
X33951D01*
X34001D01*
X34051Y8500D01*
Y8550D01*
X34001Y8600D01*
X33901D01*
X33851Y8550D01*
X15602Y8300D02*
X15402D01*
Y8450D01*
X15502D01*
X15402D01*
Y8600D01*
X15702D02*
X15802D01*
X15752D01*
Y8300D01*
X15702Y8350D01*
X16152Y8300D02*
X15952D01*
Y8450D01*
X16052D01*
X15952D01*
Y8600D01*
X16252Y8650D02*
X16452D01*
X16552Y8600D02*
Y8300D01*
X16652Y8400D01*
X16751Y8300D01*
Y8600D01*
X16851D02*
X16951D01*
X16901D01*
Y8300D01*
X16851Y8350D01*
D65*
X64245Y23091D02*
G03*
X64245Y23091I-55J0D01*
G01*
X59945D02*
G03*
X59945Y23091I-55J0D01*
G01*
X55645D02*
G03*
X55645Y23091I-55J0D01*
G01*
X51345D02*
G03*
X51345Y23091I-55J0D01*
G01*
D66*
X64662Y20807D02*
Y24075D01*
X60725Y20807D02*
X64662D01*
X60725D02*
Y24075D01*
X64662D01*
X60362Y20807D02*
Y24075D01*
X56425Y20807D02*
X60362D01*
X56425D02*
Y24075D01*
X60362D01*
X56062Y20807D02*
Y24075D01*
X52125Y20807D02*
X56062D01*
X52125D02*
Y24075D01*
X56062D01*
X51762Y20807D02*
Y24075D01*
X47825Y20807D02*
X51762D01*
X47825D02*
Y24075D01*
X51762D01*
M02*
