G04*
G04 #@! TF.GenerationSoftware,Altium Limited,Altium Designer,19.0.12 (326)*
G04*
G04 Layer_Color=16711935*
%FSLAX24Y24*%
%MOIN*%
G70*
G01*
G75*
%ADD24R,0.0671X0.0671*%
%ADD25C,0.0671*%
%ADD26C,0.0848*%
%ADD27R,0.0848X0.0848*%
%ADD28R,0.0580X0.0580*%
%ADD29C,0.0580*%
%ADD30C,0.0680*%
%ADD31R,0.0671X0.0671*%
%ADD32C,0.0879*%
%ADD33C,0.0080*%
%ADD34C,0.0881*%
%ADD35C,0.1138*%
%ADD62R,0.1180X0.1080*%
%ADD63R,0.0375X0.0434*%
%ADD64R,0.0434X0.0375*%
D24*
X62000Y17400D02*
D03*
X53600D02*
D03*
X54000Y2500D02*
D03*
Y1000D02*
D03*
D25*
X61000Y17400D02*
D03*
X60000D02*
D03*
X52600D02*
D03*
X51600D02*
D03*
X40000Y1000D02*
D03*
Y2000D02*
D03*
X38800Y1000D02*
D03*
Y2000D02*
D03*
X53000Y2500D02*
D03*
Y1000D02*
D03*
D26*
X61709Y22500D02*
D03*
X57409D02*
D03*
X53109D02*
D03*
X48809D02*
D03*
D27*
X63678D02*
D03*
X59378D02*
D03*
X55078D02*
D03*
X50778D02*
D03*
D28*
X14500Y13500D02*
D03*
Y24500D02*
D03*
X23000Y13500D02*
D03*
Y24500D02*
D03*
X31500D02*
D03*
Y13500D02*
D03*
X40000D02*
D03*
Y24500D02*
D03*
D29*
X15500Y13500D02*
D03*
X16500D02*
D03*
X17500D02*
D03*
X18500D02*
D03*
X19500D02*
D03*
X20500D02*
D03*
X21500D02*
D03*
X15500Y24500D02*
D03*
X16500D02*
D03*
X17500D02*
D03*
X18500D02*
D03*
X19500D02*
D03*
X20500D02*
D03*
X21500D02*
D03*
X24000Y13500D02*
D03*
X25000D02*
D03*
X26000D02*
D03*
X27000D02*
D03*
X28000D02*
D03*
X29000D02*
D03*
X30000D02*
D03*
X24000Y24500D02*
D03*
X25000D02*
D03*
X26000D02*
D03*
X27000D02*
D03*
X28000D02*
D03*
X29000D02*
D03*
X30000D02*
D03*
X38500D02*
D03*
X37500D02*
D03*
X36500D02*
D03*
X35500D02*
D03*
X34500D02*
D03*
X33500D02*
D03*
X32500D02*
D03*
X38500Y13500D02*
D03*
X37500D02*
D03*
X36500D02*
D03*
X35500D02*
D03*
X34500D02*
D03*
X33500D02*
D03*
X32500D02*
D03*
X41000D02*
D03*
X42000D02*
D03*
X43000D02*
D03*
X44000D02*
D03*
X45000D02*
D03*
X46000D02*
D03*
X47000D02*
D03*
X41000Y24500D02*
D03*
X42000D02*
D03*
X43000D02*
D03*
X44000D02*
D03*
X45000D02*
D03*
X46000D02*
D03*
X47000D02*
D03*
D30*
X41500Y3500D02*
D03*
Y4500D02*
D03*
Y5500D02*
D03*
X42500Y3500D02*
D03*
Y4500D02*
D03*
Y5500D02*
D03*
D31*
X40000Y3000D02*
D03*
X38800D02*
D03*
D32*
X28500Y6000D02*
D03*
X18500D02*
D03*
X20500D02*
D03*
X22500D02*
D03*
X24500D02*
D03*
X26500D02*
D03*
D33*
X31500Y2500D02*
D03*
X15500D02*
D03*
D34*
X9622Y11598D02*
D03*
X11000D02*
D03*
Y24000D02*
D03*
X9622D02*
D03*
X11000Y22622D02*
D03*
X9622D02*
D03*
X11000Y21244D02*
D03*
X9622D02*
D03*
X11000Y19866D02*
D03*
X9622D02*
D03*
X11000Y18488D02*
D03*
X9622D02*
D03*
X11000Y17110D02*
D03*
X9622D02*
D03*
X11000Y15732D02*
D03*
X9622D02*
D03*
X11000Y14354D02*
D03*
X9622D02*
D03*
X11000Y12976D02*
D03*
X9622D02*
D03*
D35*
X16000Y23000D02*
D03*
Y17000D02*
D03*
X24500Y23000D02*
D03*
Y17000D02*
D03*
X33000Y23000D02*
D03*
Y17000D02*
D03*
X41500Y23000D02*
D03*
Y17000D02*
D03*
D62*
X54250Y12120D02*
D03*
Y10100D02*
D03*
X51230D02*
D03*
Y12120D02*
D03*
X61820Y12020D02*
D03*
Y10000D02*
D03*
X58800D02*
D03*
Y12020D02*
D03*
X26500Y10100D02*
D03*
Y12120D02*
D03*
X29520D02*
D03*
Y10100D02*
D03*
X46520D02*
D03*
Y12120D02*
D03*
X43500D02*
D03*
Y10100D02*
D03*
X38020D02*
D03*
Y12120D02*
D03*
X35000D02*
D03*
Y10100D02*
D03*
X21020D02*
D03*
Y12120D02*
D03*
X18000D02*
D03*
Y10100D02*
D03*
D63*
X48484Y2160D02*
D03*
X47796D02*
D03*
D64*
X39000Y5344D02*
D03*
Y4656D02*
D03*
X38000Y5344D02*
D03*
Y4656D02*
D03*
M02*
